<svg width="200" height="80" viewBox="0 0 200 80" fill="none" xmlns="http://www.w3.org/2000/svg"><path fill="#fff" d="M0 0h200v80H0z"></path><path d="M85.834 39.527c0 .823.089 1.49.245 1.98.177.49.4 1.024.71 1.602a.968.968 0 01.156.512c0 .222-.133.445-.422.667l-1.4.934c-.2.134-.4.2-.578.2-.222 0-.445-.11-.667-.31a6.873 6.873 0 01-.8-1.046 17.6 17.6 0 01-.69-1.313c-1.733 2.047-3.911 3.07-6.534 3.07-1.867 0-3.357-.534-4.446-1.602-1.089-1.067-1.645-2.491-1.645-4.271 0-1.891.667-3.426 2.023-4.583s3.156-1.735 5.446-1.735c.756 0 1.534.067 2.356.178.822.111 1.667.289 2.556.49v-1.625c0-1.69-.355-2.87-1.044-3.56-.712-.689-1.912-1.023-3.624-1.023-.778 0-1.578.09-2.4.29-.823.2-1.623.444-2.4.756a6.36 6.36 0 01-.779.29 1.363 1.363 0 01-.356.066c-.31 0-.466-.223-.466-.69v-1.09c0-.356.044-.623.155-.778.111-.156.311-.312.623-.468.778-.4 1.711-.734 2.8-1 1.09-.29 2.245-.424 3.468-.424 2.645 0 4.579.601 5.824 1.802 1.222 1.202 1.845 3.026 1.845 5.473v7.208h.044zm-9.025 3.382c.734 0 1.49-.134 2.29-.4.8-.268 1.511-.757 2.112-1.425.355-.422.622-.89.755-1.423a7.996 7.996 0 00.223-1.936v-.934a18.562 18.562 0 00-2.045-.378c-.712-.09-1.4-.134-2.09-.134-1.489 0-2.578.29-3.312.89-.733.6-1.089 1.446-1.089 2.559 0 1.045.267 1.824.823 2.358.533.556 1.311.823 2.334.823zm17.85 2.403c-.4 0-.667-.067-.845-.223-.178-.133-.334-.445-.467-.868l-5.223-17.196c-.134-.445-.2-.735-.2-.89 0-.356.177-.557.533-.557h2.178c.423 0 .712.067.867.223.178.133.311.445.445.868l3.734 14.727 3.468-14.727c.11-.445.244-.735.422-.868.178-.134.489-.223.889-.223h1.778c.422 0 .711.067.889.223.178.133.334.445.423.868l3.512 14.905 3.845-14.905c.133-.445.289-.735.445-.868.177-.134.466-.223.866-.223h2.068c.355 0 .555.178.555.557 0 .11-.022.222-.044.355a3.148 3.148 0 01-.156.557l-5.357 17.197c-.133.445-.289.734-.466.867-.178.134-.467.223-.845.223h-1.912c-.422 0-.711-.067-.889-.223-.178-.155-.333-.445-.422-.89l-3.445-14.349L97.881 44.2c-.11.445-.244.734-.422.89-.178.156-.489.223-.889.223h-1.91zm28.562.6c-1.156 0-2.311-.133-3.423-.4-1.111-.267-1.978-.556-2.556-.89-.356-.2-.6-.423-.689-.623a1.57 1.57 0 01-.134-.623v-1.135c0-.467.178-.69.512-.69.133 0 .266.023.4.067.133.045.333.134.556.223.755.334 1.578.6 2.445.779.889.178 1.756.267 2.645.267 1.4 0 2.489-.245 3.245-.735.756-.489 1.156-1.2 1.156-2.113 0-.623-.2-1.135-.6-1.557-.4-.423-1.156-.801-2.245-1.157l-3.223-1.001c-1.623-.512-2.823-1.268-3.557-2.27-.733-.978-1.111-2.069-1.111-3.225 0-.935.2-1.758.6-2.47.4-.712.933-1.335 1.6-1.824.667-.512 1.423-.89 2.312-1.157.889-.267 1.823-.378 2.801-.378.489 0 1 .022 1.489.089.511.067.978.156 1.445.245a17.3 17.3 0 011.267.356c.4.133.711.267.933.4.312.178.534.356.667.556.134.178.2.423.2.734v1.046c0 .467-.178.712-.511.712-.178 0-.467-.09-.845-.267-1.267-.578-2.689-.868-4.267-.868-1.267 0-2.268.2-2.957.623-.689.423-1.044 1.068-1.044 1.98 0 .623.222 1.157.666 1.58.445.422 1.267.845 2.445 1.223l3.157 1.002c1.6.511 2.756 1.223 3.445 2.135.689.912 1.023 1.958 1.023 3.115 0 .956-.2 1.824-.578 2.58a5.982 5.982 0 01-1.623 1.958c-.689.556-1.511.957-2.467 1.246-1 .311-2.045.467-3.179.467z" fill="#252F3E"></path><path fill-rule="evenodd" clip-rule="evenodd" d="M127.422 56.724C120.109 62.13 109.484 65 100.349 65c-12.803 0-24.34-4.739-33.053-12.614-.689-.623-.067-1.468.756-.979 9.424 5.473 21.05 8.788 33.075 8.788 8.113 0 17.026-1.691 25.228-5.162 1.223-.556 2.268.801 1.067 1.691z" fill="#F90"></path><path fill-rule="evenodd" clip-rule="evenodd" d="M130.468 53.254c-.934-1.202-6.18-.579-8.558-.29-.711.09-.823-.533-.178-1 4.179-2.937 11.047-2.092 11.847-1.113.801 1.001-.222 7.875-4.134 11.168-.6.512-1.178.245-.911-.423.889-2.202 2.867-7.163 1.934-8.342z" fill="#F90"></path></svg>