<svg width="200" height="80" viewBox="0 0 200 80" fill="none" xmlns="http://www.w3.org/2000/svg"><path fill="#fff" d="M0 0h200v80H0z"></path><path d="M91.458 18.819a10.39 10.39 0 00-6.254 18.61l4.583-4.57c-.611-.256-1.112-.719-1.53-1.232a4.034 4.034 0 116.852-4.103l4.62-4.63a10.36 10.36 0 00-8.271-4.075z" fill="#FBBC05"></path><path d="M108.937 13.594c2.096 1.861 3.656 4.333 4.39 7.04a10.38 10.38 0 01-5.891 18.953h-7.989v-6.375h7.989a4.031 4.031 0 003.465-3.995 4.033 4.033 0 00-3.465-3.994v-.787a8.072 8.072 0 00-.745-3.494c-.506-1.095-1.274-1.992-2.203-2.76l4.449-4.588z" fill="#4285F4"></path><path d="M89.78 32.856a3.991 3.991 0 001.677.336h7.99v6.395h-7.99c-2.255.007-4.462-.803-6.265-2.158l4.587-4.573z" fill="#34A853"></path><path d="M55.144 65.884a7.06 7.06 0 01-5.164-11.963 1.14 1.14 0 00.11-.11 7.001 7.001 0 015.044-2.109 6.706 6.706 0 014.852 1.957l-1.402 1.402a4.943 4.943 0 00-3.44-1.402 4.884 4.884 0 00-3.6 1.543 5.125 5.125 0 007.181 7.313 4.17 4.17 0 001.009-2.38h-4.59v-1.977h6.496c.07.396.101.798.091 1.2a6.193 6.193 0 01-1.685 4.52 6.475 6.475 0 01-4.902 2.006zm15.201-1.28a4.6 4.6 0 110-6.527 4.69 4.69 0 010 6.526zm-5.043-1.292a2.474 2.474 0 003.5.142l.131-.132a2.693 2.693 0 00.757-2.017 2.785 2.785 0 00-.757-2.017 2.522 2.522 0 00-3.56-.081l-.081.07a2.784 2.784 0 00-.757 2.018 2.664 2.664 0 00.747 2.017h.02zm14.989 1.291a4.61 4.61 0 110-6.526 4.721 4.721 0 01-.02 6.526h.02zm-5.043-1.29a2.462 2.462 0 003.49.14l.11-.13a2.935 2.935 0 000-3.955 2.521 2.521 0 00-3.53-.09l-.07.07a2.683 2.683 0 00-.767 2.017 2.814 2.814 0 00.767 2.018v-.07zM86.868 70a4.105 4.105 0 01-2.492-.827 4.761 4.761 0 01-1.483-1.886l1.756-.727c.184.447.483.837.867 1.13.39.326.884.502 1.392.494a2.35 2.35 0 001.796-.686c.46-.566.684-1.29.625-2.017v-.656h-.07a2.895 2.895 0 01-2.391 1.009 4.226 4.226 0 01-3.107-1.27 4.428 4.428 0 01-1.382-3.178 4.367 4.367 0 011.342-3.228 4.207 4.207 0 013.026-1.392c.483.004.96.107 1.402.302.383.17.726.417 1.008.727h.071v-.727h1.927v8.15a4.842 4.842 0 01-1.22 3.572 4.378 4.378 0 01-3.108 1.19l.04.02zm.14-5.89a2.218 2.218 0 001.716-.767 2.764 2.764 0 00.716-1.957 2.865 2.865 0 00-.706-2.018 2.219 2.219 0 00-1.715-.766 2.39 2.39 0 00-1.806.766 2.824 2.824 0 00-.06 3.934 2.421 2.421 0 001.866.787l-.01.02zm7.566-11.873v13.385h-2.017V52.217l2.017.02zm5.457 13.668a4.388 4.388 0 01-3.228-1.302 4.782 4.782 0 010-6.526 4.186 4.186 0 014.6-1.009c.429.189.819.456 1.15.787.294.282.554.597.777.938.18.284.333.584.454.898l.201.514-6.133 2.522a2.31 2.31 0 002.209 1.402 2.594 2.594 0 002.24-1.28l1.543 1.008a5.42 5.42 0 01-1.473 1.402 4.175 4.175 0 01-2.35.595l.01.05zm-2.522-4.721l4.035-1.695a1.42 1.42 0 00-.625-.706 2.25 2.25 0 00-1.009-.262 2.522 2.522 0 00-2.4 2.663zm16.917 4.701a6.3 6.3 0 01-4.491-1.768 6.314 6.314 0 01-1.925-4.426v-.262a6.315 6.315 0 016.164-6.466h.252a5.75 5.75 0 014.549 2.018l-1.009 1.079a4.18 4.18 0 00-3.429-1.584 4.676 4.676 0 00-3.42 1.402 5.277 5.277 0 000 7.142 4.711 4.711 0 003.42 1.402 4.924 4.924 0 003.833-1.785l1.099 1.1a5.926 5.926 0 01-2.118 1.613 6.397 6.397 0 01-2.925.535zm7.918-.273h-1.634V53.225h1.594l.04 12.387zm2.562-7.455a4.429 4.429 0 016.254 0 4.844 4.844 0 010 6.436 4.448 4.448 0 01-6.254 0 4.844 4.844 0 010-6.436zm1.18 5.437a2.67 2.67 0 001.863.844 2.659 2.659 0 001.91-.733l.101-.1a3.412 3.412 0 000-4.449 2.655 2.655 0 00-3.753-.11l-.111.1a3.042 3.042 0 00-.817 2.23 3.08 3.08 0 00.828 2.208l-.021.01zm15.121 2.018h-1.524v-1.17c-.287.42-.671.767-1.119 1.009a3.139 3.139 0 01-1.584.423 3.026 3.026 0 01-2.411-1.008 3.786 3.786 0 01-.807-2.583V57.15h1.584v4.933c0 1.573.696 2.37 2.098 2.37a1.957 1.957 0 001.604-.767 2.9 2.9 0 00.575-1.876v-4.66h1.584v8.463zm5.396.272a3.72 3.72 0 01-2.794-1.28 4.956 4.956 0 010-6.436 3.74 3.74 0 014.519-.888c.465.234.864.58 1.16 1.009h.071l-.071-1.14v-3.924h1.584v12.387h-1.544v-1.17a3.106 3.106 0 01-1.16 1.009 3.569 3.569 0 01-1.765.433zm.252-1.392a2.581 2.581 0 001.917-.847c.535-.61.807-1.409.756-2.22a3.126 3.126 0 00-.756-2.238 2.595 2.595 0 00-3.662-.182l-.191.161a3.61 3.61 0 000 4.449 2.583 2.583 0 001.916.817l.02.06z" fill="#5F6368"></path><path d="M108.936 13.591l-4.446 4.592a7.948 7.948 0 00-10.893.828 1.907 1.907 0 01-.009.022 10.363 10.363 0 00-2.13-.214 10.39 10.39 0 00-5.856 1.875 1.018 1.018 0 01-.004-.1 14.342 14.342 0 0123.338-7.003z" fill="#EA4335"></path></svg>