<svg width="200" height="80" viewBox="0 0 200 80" fill="none" xmlns="http://www.w3.org/2000/svg"><path fill="#fff" d="M0 0h200v80H0z"></path><path d="M88.532 43.142l5.497 14.594h-2.792l-1.29-3.639h-5.752l-1.241 3.625h-2.768l5.497-14.594 2.85.014zm-1.506 2.71l-2.157 6.142h4.376l-2.147-6.142h-.072zm8.234 1.425h8.357v.987l-5.487 7.518h5.516v1.955h-8.77v-1.17l5.4-7.34h-5.015v-1.95zm18.865 0v10.46h-2.479V56.36h-.043a3.335 3.335 0 01-1.31 1.107 4.07 4.07 0 01-1.834.404 3.569 3.569 0 01-2.772-1.035c-.642-.686-.963-1.756-.963-3.21v-6.349h2.518v6.065a3.16 3.16 0 00.524 1.988 1.893 1.893 0 001.584.664 2.086 2.086 0 001.675-.736c.44-.543.666-1.228.635-1.926v-6.055h2.465zm7.417-.173a2.606 2.606 0 01.924.14v2.493a2.13 2.13 0 00-.563-.27 2.745 2.745 0 00-.9-.125 1.929 1.929 0 00-1.531.76 3.67 3.67 0 00-.626 2.354v5.295h-2.459V47.277h2.464v1.646h.039a2.885 2.885 0 011.02-1.338 2.74 2.74 0 011.632-.481zm9.79 7.995v2.026a5.295 5.295 0 01-1.598.626 8.975 8.975 0 01-2.108.24 4.852 4.852 0 01-3.716-1.414c-.886-.944-1.329-2.256-1.329-3.938a5.743 5.743 0 011.42-4.004 4.617 4.617 0 013.596-1.574 4.333 4.333 0 013.369 1.328c.802.886 1.204 2.108 1.204 3.668v1.194h-7.158c.111 1.049.448 1.785 1.011 2.2.645.44 1.415.66 2.195.625a5.176 5.176 0 001.689-.27 5.383 5.383 0 001.425-.707zm-1.579-3.653a2.745 2.745 0 00-.563-1.863 2.023 2.023 0 00-1.593-.64 2.3 2.3 0 00-1.588.635 3.25 3.25 0 00-.934 1.868h4.678zM96.85 23.08v14.595h-2.537V26.233h-.039l-4.529 11.442h-1.68l-4.64-11.442h-.029v11.442h-2.344V23.08h3.634l4.193 10.8h.072l4.423-10.815 3.476.015zm2.117 1.108a1.329 1.329 0 01.443-1.02 1.565 1.565 0 012.133 0 1.367 1.367 0 01.428 1.01 1.345 1.345 0 01-.438 1.01 1.52 1.52 0 01-1.069.405 1.477 1.477 0 01-1.063-.409 1.34 1.34 0 01-.434-.996zm2.715 3.022v10.465h-2.46V27.21h2.46zm7.47 8.664a3.444 3.444 0 001.213-.255 5.01 5.01 0 001.218-.674v2.306a4.96 4.96 0 01-1.338.51 7.246 7.246 0 01-1.641.173 4.982 4.982 0 01-5.213-5.198 5.967 5.967 0 011.487-4.149c.985-1.091 2.38-1.636 4.183-1.636a5.81 5.81 0 011.401.178c.389.09.766.229 1.121.413v2.359a5.171 5.171 0 00-1.165-.645 3.409 3.409 0 00-1.213-.226 3.089 3.089 0 00-2.353.962 3.567 3.567 0 00-.896 2.556 3.42 3.42 0 00.862 2.474 3.12 3.12 0 002.349.862l-.015-.01zm9.444-8.847c.177-.001.355.013.53.044.136.018.27.052.399.1v2.494a2.165 2.165 0 00-.568-.27 2.745 2.745 0 00-.9-.125 1.923 1.923 0 00-1.531.761 3.668 3.668 0 00-.621 2.358v5.295h-2.464V27.21h2.464v1.651h.039a2.89 2.89 0 011.02-1.338c.479-.33 1.05-.5 1.632-.486v-.01zm1.059 5.56a5.652 5.652 0 011.468-4.11c.963-1.012 2.318-1.517 4.067-1.517a5.012 5.012 0 013.851 1.444 5.508 5.508 0 011.381 3.942 5.568 5.568 0 01-1.468 4.053 5.287 5.287 0 01-3.985 1.507 5.223 5.223 0 01-3.851-1.444 5.298 5.298 0 01-1.463-3.866v-.01zm2.565-.082a3.736 3.736 0 00.742 2.503 2.655 2.655 0 002.127.866 2.483 2.483 0 002.046-.866 4.004 4.004 0 00.703-2.57 3.856 3.856 0 00-.727-2.547 2.523 2.523 0 00-2.06-.823 2.588 2.588 0 00-2.104.9 3.95 3.95 0 00-.727 2.547v-.01zm11.846-2.556a1.042 1.042 0 00.337.828 5.53 5.53 0 001.482.76 5.067 5.067 0 012.075 1.329c.4.508.61 1.14.592 1.786a2.879 2.879 0 01-1.131 2.373 4.814 4.814 0 01-3.071.895 7.344 7.344 0 01-1.444-.159 6.421 6.421 0 01-1.338-.404V34.95c.446.311.931.56 1.444.741a4.15 4.15 0 001.405.28c.424.026.848-.055 1.233-.236a.836.836 0 00.394-.785 1.095 1.095 0 00-.409-.861 6.347 6.347 0 00-1.564-.809 4.823 4.823 0 01-1.926-1.28 2.806 2.806 0 01-.567-1.81 2.852 2.852 0 011.126-2.325 4.447 4.447 0 012.912-.914c.413.005.826.047 1.232.125.39.064.773.168 1.141.313v2.344a5.244 5.244 0 00-1.141-.564 3.85 3.85 0 00-1.29-.23 1.895 1.895 0 00-1.097.274.868.868 0 00-.395.746v-.01zm5.545 2.638a5.652 5.652 0 011.468-4.11c.963-1.012 2.33-1.517 4.067-1.517a5.012 5.012 0 013.851 1.444 5.508 5.508 0 011.381 3.942 5.568 5.568 0 01-1.468 4.053 5.296 5.296 0 01-3.985 1.507 5.223 5.223 0 01-3.851-1.444 5.298 5.298 0 01-1.463-3.866v-.01zm2.565-.082a3.736 3.736 0 00.742 2.503 2.635 2.635 0 002.127.866 2.477 2.477 0 002.046-.866 4.004 4.004 0 00.703-2.57 3.856 3.856 0 00-.727-2.547 2.516 2.516 0 00-2.041-.823 2.58 2.58 0 00-2.104.9 3.945 3.945 0 00-.746 2.547v-.01zm16.366-3.288h-3.668v8.458h-2.493v-8.448h-1.748V27.21h1.748v-1.444a3.639 3.639 0 011.068-2.71 3.779 3.779 0 012.753-1.054c.266-.002.531.013.795.044.207.027.412.073.611.14v2.127a2.509 2.509 0 00-.429-.173 2.223 2.223 0 00-.702-.102 1.48 1.48 0 00-1.189.482c-.311.414-.46.928-.419 1.444v1.26h3.668v-2.363l2.474-.755v3.104h2.493v2.017h-2.493v4.895a2.05 2.05 0 00.351 1.362 1.4 1.4 0 001.102.4 1.53 1.53 0 00.515-.106 2.29 2.29 0 00.525-.24v2.035a2.822 2.822 0 01-.78.241 5.14 5.14 0 01-1.073.116 3.054 3.054 0 01-2.334-.833 3.526 3.526 0 01-.78-2.498l.005-5.381z" fill="#737373"></path><path d="M52.471 23.08H36v16.472h16.471V23.08z" fill="#F25022"></path><path d="M70.656 23.08H54.185v16.472h16.471V23.08z" fill="#7FBA00"></path><path d="M52.471 41.266h-16.47v16.47h16.47v-16.47z" fill="#00A4EF"></path><path d="M70.656 41.266H54.185v16.47h16.471v-16.47z" fill="#FFB900"></path></svg>